<?xml version="1.0" encoding="UTF-8"?><svg xmlns="http://www.w3.org/2000/svg" xmlns:xlink="http://www.w3.org/1999/xlink" viewBox="0 0 48 48" version="1.1"><g id="surface1"><path d="M37 45H11a3 3 0 0 1-3-3V6a3 3 0 0 1 3-3h19l10 10v29a3 3 0 0 1-3 3z" fill="#43A047"/><path d="M40 13H30V3z" fill="#C8E6C9"/><path d="M30 13l10 10V13z" fill="#2E7D32"/><path d="M31 23H15v14h18V23zm-14 2h4v2h-4zm0 4h4v2h-4zm0 4h4v2h-4zm14 2h-8v-2h8zm0-4h-8v-2h8zm0-4h-8v-2h8z" fill="#E8F5E9"/></g><metadata><rdf:RDF xmlns:rdf="http://www.w3.org/1999/02/22-rdf-syntax-ns#" xmlns:rdfs="http://www.w3.org/2000/01/rdf-schema#" xmlns:dc="http://purl.org/dc/elements/1.1/"><rdf:Description about="https://iconscout.com/legal#licenses" dc:title="google,sheets" dc:description="google,sheets" dc:publisher="Iconscout" dc:date="2017-12-15" dc:format="image/svg+xml" dc:language="en"><dc:creator><rdf:Bag><rdf:li>Icons8</rdf:li></rdf:Bag></dc:creator></rdf:Description></rdf:RDF></metadata></svg>